<svg id="Layer_1" data-name="Layer 1" xmlns="http://www.w3.org/2000/svg" viewBox="0 0 443 560"><defs><style>.cls-1{fill:#23cc11;}</style></defs><title>machine-green</title><path class="cls-1" d="M403.23,17.5H42.77a23.14,23.14,0,0,0-23.24,23v75.24a8.75,8.75,0,0,0,8.75,8.75H417.71a8.75,8.75,0,0,0,8.75-8.75V40.48a23.13,23.13,0,0,0-23.24-23ZM37,40.48A5.56,5.56,0,0,1,42.77,35h92.78v72H37Zm116-5.48H301.29v72H153.05ZM409,107H318.79V35h84.44A5.56,5.56,0,0,1,409,40.48Z"/><path class="cls-1" d="M417.72,140a8.75,8.75,0,0,0-8.75,8.75V483.94a5.55,5.55,0,0,1-5.74,5.48c-18.6,0-65.92,0-85.13,0H42.78A5.56,5.56,0,0,1,37,483.94V148.75c-.06-11.29-17.35-11.65-17.5,0V483.94a23.13,23.13,0,0,0,23.23,23h31.1v26.83a8.75,8.75,0,0,0,8.75,8.75H137a8.75,8.75,0,0,0,8.75-8.75V506.92H309.36v26.83a8.75,8.75,0,0,0,8.75,8.75h54.33a8.75,8.75,0,0,0,8.75-8.75V506.92h22.05a23.14,23.14,0,0,0,23.24-23V148.75a8.75,8.75,0,0,0-8.75-8.75ZM128.21,525H91.37V506.93h36.84Zm235.47,0H326.84V506.93h36.84Z"/><path class="cls-1" d="M227.16,466.28c77.93,0,141.34-62.34,141.34-139-7.73-184.34-275-184.28-282.68,0,0,76.62,63.41,139,141.34,139Zm0-260.43c68.29,0,123.84,54.48,123.84,121.46-6.77,161.13-240.94,161.08-247.68,0C103.32,260.34,158.88,205.85,227.16,205.85Z"/><path class="cls-1" d="M252,66.29H202.29c-11.49.19-11.52,17.31,0,17.5H252C263.49,83.61,263.52,66.48,252,66.29Z"/><path class="cls-1" d="M102.36,139.53H70.21A17.47,17.47,0,0,0,52.68,156.9v31.58a17.47,17.47,0,0,0,17.53,17.37h32.15a17.48,17.48,0,0,0,17.54-17.37V156.9A17.48,17.48,0,0,0,102.36,139.53ZM70.21,188.35l0,.13,0-31.45,32.19.06,0,31.26Z"/><path class="cls-1" d="M227.14,246.53c45.43,0,82.4,36.23,82.4,80.77.16,11.46,17.31,11.52,17.5,0,0-54.19-44.82-98.27-99.9-98.27a8.75,8.75,0,0,0,0,17.5Z"/><path class="cls-1" d="M152.57,380.8a8.77,8.77,0,0,0,6.13-2.5l53.86-52.9c8.12-8-4.05-20.48-12.26-12.49L146.44,365.8c-5.65,5.18-1.39,15.27,6.13,15Z"/><path class="cls-1" d="M254.16,317,200.3,369.86c-8.12,8.05,4,20.48,12.26,12.5l53.86-52.9C274.54,321.42,262.36,309,254.16,317Z"/></svg>